<?xml version="1.0" standalone="no"?><!DOCTYPE svg PUBLIC "-//W3C//DTD SVG 1.1//EN" "http://www.w3.org/Graphics/SVG/1.1/DTD/svg11.dtd"><svg t="1610230022612" class="icon" viewBox="0 0 1024 1024" version="1.1" xmlns="http://www.w3.org/2000/svg" p-id="2156" xmlns:xlink="http://www.w3.org/1999/xlink" width="200" height="200"><defs><style type="text/css"></style></defs><path d="M977.1 486.7H775c-17.8 0-32.2-14.4-32.2-32.2 0-17.8 14.4-32.2 32.2-32.2h202.2c17.8 0 32.2 14.4 32.2 32.2-0.1 17.8-14.5 32.2-32.3 32.2zM242.1 486.7H48.9c-17.8 0-32.2-14.4-32.2-32.2 0-17.8 14.4-32.2 32.2-32.2h193.2c17.8 0 32.2 14.4 32.2 32.2 0 17.8-14.5 32.2-32.2 32.2zM177.6 260.2c-17.8 0-32.2-14.4-32.2-32.2v-69.7c0-17.8 14.4-32.2 32.2-32.2s32.2 14.4 32.2 32.2V228c0 17.8-14.4 32.2-32.2 32.2zM874.2 260.2c-13.9 0-26.8-9.1-30.9-23.2L828 184.9c-6-20.4-25-34.7-46.4-34.7H373.8c-21.3 0-40.4 14.3-46.3 34.7L312.2 237c-5 17.1-22.9 26.8-39.9 21.9-17.1-5-26.8-22.9-21.9-39.9l15.3-52.1c14-47.7 58.4-81 108.1-81h407.9c49.7 0 94.2 33.3 108.1 81l15.3 52.1c5 17.1-4.8 35-21.9 39.9-2.9 0.9-6 1.3-9 1.3z" fill="#FFD500" p-id="2157"></path><path d="M848.4 947H177.6c-88.8 0-161-72.2-161-161V356.8c0-88.8 72.2-161 161-161h670.7c88.8 0 161 72.2 161 161V786c0 88.8-72.2 161-160.9 161zM177.6 260.2c-53.3 0-96.6 43.3-96.6 96.6V786c0 53.3 43.3 96.6 96.6 96.6h670.7c53.3 0 96.6-43.3 96.6-96.6V356.8c0-53.3-43.3-96.6-96.6-96.6H177.6z" fill="#ED4CA5" p-id="2158"></path><path d="M510.9 868.9c-164 0-297.5-133.4-297.5-297.5s133.4-297.5 297.5-297.5 297.5 133.4 297.5 297.5-133.5 297.5-297.5 297.5z m0-530.6c-128.5 0-233.1 104.6-233.1 233.1s104.6 233.1 233.1 233.1S744 699.9 744 571.4 639.4 338.3 510.9 338.3z" fill="#ED4CA5" p-id="2159"></path><path d="M510.9 765.9c-107.2 0-194.5-87.3-194.5-194.5s87.3-194.5 194.5-194.5 194.5 87.3 194.5 194.5-87.3 194.5-194.5 194.5z m0-324.6c-71.7 0-130.1 58.4-130.1 130.1s58.4 130.1 130.1 130.1S641 643.1 641 571.4s-58.4-130.1-130.1-130.1z" fill="#FFD500" p-id="2160"></path></svg>