<?xml version="1.0" standalone="no"?><!DOCTYPE svg PUBLIC "-//W3C//DTD SVG 1.1//EN" "http://www.w3.org/Graphics/SVG/1.1/DTD/svg11.dtd"><svg t="1610230144790" class="icon" viewBox="0 0 1024 1024" version="1.1" xmlns="http://www.w3.org/2000/svg" p-id="2435" xmlns:xlink="http://www.w3.org/1999/xlink" width="200" height="200"><defs><style type="text/css"></style></defs><path d="M87.8 951c-6.4 0-12.8-1.7-18.4-5.2-10.6-6.4-17-17.9-17-30.2V322.7c0-110.8 90.2-201 201-201h528.8c110.8 0 201 90.2 201 201v328c0 110.8-90.2 201-201 201H288.4L104.1 947c-5.1 2.7-10.7 4-16.3 4z m165.6-758.5c-71.8 0-130.2 58.4-130.2 130.2v534.7l140.3-72.6c5-2.6 10.6-4 16.3-4h502.4c71.8 0 130.2-58.4 130.2-130.2v-328c0-71.8-58.4-130.2-130.2-130.2H253.4z" fill="#ED4CA5" p-id="2436"></path><path d="M740.4 437.7H295.3c-19.6 0-35.4-15.9-35.4-35.4s15.9-35.4 35.4-35.4h445.1c19.6 0 35.4 15.9 35.4 35.4s-15.9 35.4-35.4 35.4z" fill="#FFD500" p-id="2437"></path><path d="M541.6 624H295.3c-19.6 0-35.4-15.9-35.4-35.4 0-19.6 15.9-35.4 35.4-35.4h246.3c19.6 0 35.4 15.9 35.4 35.4S561.2 624 541.6 624z" fill="#ED4CA5" p-id="2438"></path></svg>