<?xml version="1.0" standalone="no"?><!DOCTYPE svg PUBLIC "-//W3C//DTD SVG 1.1//EN" "http://www.w3.org/Graphics/SVG/1.1/DTD/svg11.dtd"><svg t="1610229999916" class="icon" viewBox="0 0 1024 1024" version="1.1" xmlns="http://www.w3.org/2000/svg" p-id="1864" xmlns:xlink="http://www.w3.org/1999/xlink" width="200" height="200"><defs><style type="text/css"></style></defs><path d="M372.5 512.8C234.9 512.8 123 400.9 123 263.3c0-12.4 0.9-24.9 2.7-37 2.4-16.4 17.7-27.8 34.1-25.3 16.4 2.4 27.7 17.7 25.3 34.1-1.4 9.3-2.1 18.8-2.1 28.2 0 104.5 85 189.5 189.5 189.5 27.6 0 54.2-5.8 79-17.2 15.1-6.9 32.9-0.3 39.8 14.7 6.9 15.1 0.3 32.9-14.7 39.8-32.8 15.1-67.8 22.7-104.1 22.7z" fill="#FFD500" p-id="1865"></path><path d="M212 426c-13.1 0-25.2-8.7-28.9-22-4.4-16 4.9-32.5 20.9-37 64.9-18.1 115.7-69.9 132.5-135.1 4.1-16.1 20.5-25.7 36.6-21.6 16.1 4.1 25.7 20.5 21.6 36.6-22.1 86-89 154.2-174.6 178-2.8 0.7-5.5 1.1-8.1 1.1z" fill="#FFD500" p-id="1866"></path><path d="M252.4 677.1c-137.6 0-249.5-112-249.5-249.6S114.8 178 252.4 178 502 289.9 502 427.5 390 677.1 252.4 677.1z m0-439.1c-104.5 0-189.5 85-189.5 189.5S147.9 617 252.4 617s189.5-85 189.5-189.5S356.9 238 252.4 238z" fill="#ED4CA5" p-id="1867"></path><path d="M991 825.4H823.8c-16.6 0-30-13.4-30-30s13.4-30 30-30H991c16.6 0 30 13.4 30 30s-13.4 30-30 30z" fill="#ED4CA5" p-id="1868"></path><path d="M831.7 825.4H331.3c-23.8 0-43.2-19.4-43.2-43.2 0-152.2 123.8-275.9 275.9-275.9h178.6c72.9 0 132.3 59.3 132.3 132.3v143.7c0 23.7-19.4 43.1-43.2 43.1z m-482.9-60h466V638.6c0-39.8-32.4-72.2-72.2-72.2H564c-113.3-0.1-206.6 87.8-215.2 199z" fill="#FFD500" p-id="1869"></path><path d="M455.8 704.7m-37.6 0a37.6 37.6 0 1 0 75.2 0 37.6 37.6 0 1 0-75.2 0Z" fill="#ED4CA5" p-id="1870"></path><path d="M281.6 831c-31.7 0-57.5-25.8-57.5-57.5s25.8-57.5 57.5-57.5 57.5 25.8 57.5 57.5-25.7 57.5-57.5 57.5z m0-77.6c-11 0-20 9-20 20s9 20 20 20 20-9 20-20-8.9-20-20-20z" fill="#FFD500" p-id="1871"></path></svg>